<?xml version="1.0" encoding="UTF-8"?>
<svg viewBox="0 0 259.48 259.78" xmlns="http://www.w3.org/2000/svg">
 <path d="m139.1 136.75c5.009 1.583 10.019 3.165 15.027 4.748-1.708 4.356-3.416 8.713-5.125 13.069-2.386 6.084-1.284 7.662-7.527 5.32-5.554-2.083-4.727-1.95-4.077-7.797 0.567-5.114 1.135-10.227 1.702-15.34"/>
 <path d="m258.93 126.74c0.134-3.354 1.071-7.524 0.14401-10.769-1.139-3.982-3.706-9.1-3.706-13.235 0-3.062 1.404-9.864-0.55501-12.268-2.603-3.196-5.121-7.58-8.337-10.153-2.621-2.096-8.087-4.857-9.692-7.753-1.73-3.121 0.606-8.571-1.28-11.619-2.749-4.443-5.499-8.886-8.249-13.328-2.461-3.977-4.809-4.185-9.341-5.847-10.785-3.954-17.501-7.209-24.727-16.5-1.969-2.532-3.667-5.703-6.486-7.314-3.414-1.952-8.538-6.47-12.401-7.088-2.811-0.45-7.708 1.271-10.604 1.685-3.134 0.448-6.664 0.545-9.563 1.875 1.614-4.386-11.818-12.952-15.427-13.841-4.182-1.03-14.939-0.894-17.796 1.978-2.208 2.219-5.861 3.774-8.481 5.522-4.104 2.739-5.292 4.003-9.711 1.793-6.777-3.39-18.272-3.624-24.549 0.681-2.894 1.984-9.747 4.803-10.562 8.39-1.29 5.676-1.53 7.929-0.22 13.47 1.219 5.155 2.438 10.31 3.657 15.464 0.44 1.862-7.487 9.563-8.73 11.118-2.953 3.69-3.888 4.366-3.888 8.96 0 3.241 1.27 9.342-0.287 12.254-5.15 9.637-10.3 19.273-15.451 28.909-3.748 7.012-6.759 14.298-12.238 20.072-3.687 3.886-7.375 7.771-11.062 11.656-1.497 1.578-1.372 7.872-1.705 9.932-3.156 19.495-6.311 38.989-9.463 58.484-1.244 7.691-8.117 15.697-7.907 23.478 0.106 3.967-0.973 10.117 0.372 13.824 1.557 4.295 6.892 8.933 9.693 12.564 2.24 2.903 16.316-4.819 19.902-6.163 7.199-2.696 14.797-4.853 21.815-7.985 18.858-8.418 36.812-20.077 54.944-29.967 13.58-7.407 26.433-16.068 39.574-24.213 30.23-18.736 60.901-36.514 92.499-52.911 6.669-3.46 13.436-7.191 19.818-11.155"/>
 <path d="m254.18 123.98c-0.132-3.427-0.265-6.854-0.396-10.282-3.311 2.943-5.452 6.698-9.92 5.704-5.854-1.303-7.838 1.327-12.925 4.634-8.264 5.371-16.774 10.252-25.296 15.209-6.941 4.04-15.167 4.648-21.427 9.751-7.6 6.194-15.547 10.53-24.131 15.338-7.404 4.146-14.131 7.649-22.035 10.638-8.52 3.22-19.65 5.163-26.076 11.836-5.612 5.829-9.192 11.419-13.611 18.046-1.505 2.257-6.36 3.205-8.775 4.24-3.744 1.606-7.296 3.552-11.177 4.848-4.436 1.481-10.805 1.987-14.652 4.558-6.525 4.361-11.875 9.208-18.762 13.051-2.469 1.379-7.885 5.93-10.703 5.93-2.654 0-6.111 0.96001-8.699 1.582-6.57 1.58-13.837 5.02-19.775 8.305 1.26 1.418 5.195 7.533 6.986 6.878 4.606-1.683 9.212-3.365 13.819-5.049 8.523-3.113 18.781-5.313 26.704-9.766 17.635-9.913 35.271-19.825 52.906-29.738 27.231-15.306 52.739-33.516 80.145-48.428 14.147-7.697 28.295-15.396 42.442-23.094 6.135-3.338 12.269-6.676 18.403-10.014 2.125-1.155 5.596-2.406 6.955-4.177" fill="#e6c675"/>
 <path d="m83.731 12.054c-5.214 3.912-9.542 4.952-11.27 11.866-0.522 2.092-1.81 4.715-0.395 6.13 5.29 5.289 5.338 6.177 5.338 13.643 9.29-2.859 18.447-5.991 27.633-9.171 4.403-1.524 5.627 0.351 9.738 2.843 4.961 3.007 5.988 4.021 11.55 3.34 4.072-0.498 10.325-2.566 14.356-1.756 3.431 0.689 7.526 4.153 10.675 5.734 5.612 2.816 9.179 7.711 15.601 7.711 7.438 0 13.167 1.631 20.12 4.211 4.938 1.832 9.875 3.664 14.813 5.496 2.537 0.942 5.145 8.502 6.416 10.772 1.473 2.629 3.198 8.14 5.963 9.621 4.034 2.161 8.702 3.86 11.876 7.201 2.359 2.484 5.891 4.64 5.891 8.179 0 1.91-0.26599 4.663 0.39601 5.932 0.90199 1.732 6.063 6.58 7.91 7.515 7.984 4.046 8.389-1.554 10.351-7.674 0.921-2.874-0.99899-11.015-2.6-13.53-4.069-6.396-5.59-8.562-12.287-11.912-1.711-0.855-4.196-1.187-4.123-3.235 0.104-2.925 1.073-7.092 0.354-9.921-1.326-5.214-6.306-10.967-9.004-15.661-1.682-2.925-12.66-5.394-15.822-6.711-5.061-2.108-10.084-0.693-15.512-0.168 0.36299-4.738 2.05-8.976-1.327-12.478-3.746-3.885-6.824-8.106-11.768-10.304-6.594-2.932-8.071-3.204-15.118-1.839-4.669 0.903-8.523 2.568-12.916 4.451 0.93799-7.059-0.66802-7.442-5.686-12.646-5.05-5.238-7.529-4.477-14.965-4.743-5.488-0.196-9.148 1.277-12.53 5.141-4.204 4.803-7.021 6.889-12.694 9.875-2.169-4.337-1.923-5.426-6.564-6.031-4.801-0.629-9.601-1.255-14.4-1.881" fill="#b38f36"/>
 <path d="m81.754 46.042c-3.612 3.125-7.225 6.25-10.837 9.375-4.282 3.705-4.383 5.713-5.769 11.423-0.911 3.755-0.918 7.995-1.979 11.632-1.063 3.649-3.892 7.642-5.685 11.003-4.345 8.145-7.421 16.907-11.718 24.984-4.366 8.207-11.519 15.586-17.277 22.783-6.463 8.078-7.684 13.15-8.094 22.997-0.413 9.908-1.635 18.49-3.104 28.174-1.954 12.879-6.115 24.629-10.429 37.234-1.44 4.209-1.295 9.367-1.83 13.781 4.233-2.365 8.466-4.73 12.7-7.096 2.993-1.672 8.789-0.416 12.214-0.416 6.029 0 10.342-3.645 15.028-7.119 5.277-3.912 12.065-7.776 16.017-13.052 5.465-7.296 11.568-2.278 18.782-4.745 14.477-4.95 22.961-17.669 31.556-29.699 3.674-5.143 2.982-5.333 9.051-3.21 3.893 1.362 6.764-0.909 10.543-2.492 8.643-3.621 17.771-6.527 25.523-11.832 15.686-10.733 32.507-19.541 46.719-32.257 0.526 1.318 1.053 2.637 1.579 3.955 4.713-2.724 13.207-10.285 18.589-10.285 3.913 0 8.84-1.191 10.084-4.942 0.31099-0.934 2.233-3.385 2.175-4.152-0.18599-2.432-7.163-7.785-8.918-9.692-1.616-1.756 1.039-6.442-0.42-8.433-3.028-4.133-3.797-5.504-8.543-7.04-1.904-0.616-8.392-1.519-9.24-3.438-1.971-4.454-3.94-8.907-5.91-13.361-0.71501-1.615-1.775-6.372-3.651-6.861-4.982-1.3-9.965-2.6-14.947-3.899-4.778-1.247-19.406-6.88-23.115-2.642-3.533-3.701-7.882-6.112-12.392-8.31-2.786-1.357-7.582-5.032-10.703-5.143-4.731-0.169-9.461-0.337-14.192-0.506-3.596-0.128-6.813 0.607-9.504-1.816-3.674-3.307-4.703-6.356-9.174-4.044-5.615 2.905-17.573 10.186-23.129 9.141" fill="#e6172e"/>
 <path d="m41.418 152.84c-4.614-1.317-9.228-2.636-13.842-3.953-1.025 4.527-2.051 9.055-3.076 13.583-1.442 6.366-3.207 7.01 3.273 8.563 6.33 1.518 5.393 0.229 8.145-5.636 1.53-3.258 5.689-9.74 5.5-12.557"/>
 <path d="m36.273 155.61c-1.978-0.79199-3.955-1.583-5.932-2.375-0.442 2.025-5.435 16.254 0.792 13.445 1.839-0.82901 4.618-9.035 5.14-11.07" fill="#66cc29"/>
 <path d="m23.621 203.07c-1.187 2.02-3.687 4.563-5.736 5.931-2.583 1.723-1.906 3.677-3.757 5.537-5.502 5.533-0.275 16.053 6.944 15.613 8.41-0.511 19.931-2.539 25.059-10.228 2.566-3.849 4.405-6.065 4.776-10.133 0.244-2.669-0.452-5.558 0.791-7.908-4.247-0.43199-5.574-3.604-10.281-3.164-4.808 0.45099-14.107 5.346-17.796 4.352"/>
 <path d="m25.6 206.63c-3.433 2.64-7.726 5.57-8.701 9.887-1.27 5.625 3.788 7.901 8.51 8.15 5.456 0.28799 10.303-3.873 15.011-6.455 3.167-1.737 4.208-6.21 4.953-9.209 0.837-3.37 0.87-3.844-1.189-5.539-4.549-3.745-13.523 0.768-18.584 3.166" fill="#4d3d26"/>
 <path d="m28.365 207.02c-1.358 1.357-8.729 11.166-1.838 10.635 4.472-0.345 9.074-1.324 11.726-5.297 1.445-2.165 0.769-3.979 1.581-6.131-3.728-1.744-6.989-0.83699-11.469 0.793"/>
 <path d="m109.44 130.3c5.436 0.56799 11.394-3.202 17.4-1.187 3.902 1.31 4.571 3.567 5.549 7.087 1.071 3.851-0.698 4.886-3.039 8.191-4.021 5.678-9.66 7.785-15.767 11.117-3.456 1.885-10.018 0.087006-13.24-1.48-3.603-1.753-4.981-2.075-5.141-5.932-0.146-3.529 1.665-5.668 3.56-8.503 2.072-3.099 10.514-7.543 10.678-9.293"/>
 <path d="m111.02 133.07c3.441-0.33 8.6-3.111 12.258-1.582 5.379 2.248 2.957 8.249 1.025 11.874-1.554 2.917-8.554 6.24-11.699 7.108-3.409 0.94099-7.183 0.57999-10.285-0.791-3.148-1.392-2.769-1.273-2.769-4.35 9.99e-4 -6.37 6.82-9.567 11.47-12.259" fill="#4d3d26"/>
 <path d="m110.23 135.84c1.833-0.72299 4.354-1.071 5.932-0.39499 6.719 2.881 0.029999 9.174-4.747 10.281-2.933 0.68001-7.486-0.23-7.117-3.563 0.248-2.236 4.213-5.361 5.932-6.323"/>
 <path d="m100.74 120.02c-1.154-1.353-1.249-4.082-1.978-5.933-0.744-1.888-2.407-3.499-3.167-5.141-4.209 6.314-7.927 14.534-13.802 19.401-7.201 5.967-13.757 11.805-20.208 18.564 4.88 0.886 7.73 2.021 12.169 0.013 4.582-2.072 9.841-4.133 13.737-6.736 3.384-2.262 6.348-6.942 9.292-9.886 3.249-3.25 3.479-5.197 3.957-10.282"/>
 <path d="m70.681 143.75c4.636-3.863 9.61-7.484 13.742-11.891 4.717-5.031 7.702-10.608 11.171-16.585 0.056 3.762 1.76 7.789-0.787 11.864-5.061 8.102-16.121 12.494-24.126 16.612" fill="#ff994d"/>
 <path d="m90.455 63.861c-3.258 2.776-7.733 4.38-11.072 7.513-5.058 4.746-6.475 13.54 2.259 15.348 7.762 1.606 17.859 1.781 24.363-3.748 2.627-2.233 5.672-4.131 6.993-6.854 1.037-2.137 0.602-4.762 2.371-6.722-2.598-2.182-3.92-5.14-7.511-5.14-2.314 0-4.895-0.763-7.118-0.792-3.033-0.039001-8.073 1.5-10.285 0.395"/>
 <path d="m90.853 67.421c-2.267 1.771-5.349 2.141-7.517 3.954-3.262 2.728-4.489 9.127 0.852 10.796 6.277 1.962 14.399 0.654 19.674-3.566 2.613-2.091 2.983-2.706 4.39-4.855 0.936-1.429 0.8-2.532 1.979-3.559-2.292-1.055-2.963-2.837-5.932-3.559-4.454-1.082-8.97 0.314-13.446 0.78899" fill="#4d3d26"/>
 <path d="m93.618 68.212c-2.515 1.622-8.911 4.55-4.743 8.7 5.548 5.523 13.146-2.707 15.028-6.721-3.316-1.783-5.35-1.979-10.285-1.979"/>
 <path d="m58.422 58.722c-0.264 4.35-0.527 8.7-0.791 13.05 4.232-0.407 8.465-0.814 12.697-1.221 5.533-0.532 7.781 0.975 8.064-4.71 0.263-5.262-0.874-4.123-5.998-4.926-4.657-0.732-9.314-1.463-13.972-2.193"/>
 <path d="m62.377 62.675l-0.396 5.142c3.074-0.384 12.472 0.185 13.053-3.164-3.929-0.713-9.456-0.836-12.657-1.978" fill="#66cc29"/>
 <path d="m146.61 71.771c-7.492 7.313-21.221 16.751-21.81 28.523-0.129 2.589-1.221 5.85 0.764 7.694 3.579 3.325 4.196 4.109 8.995 4.361 6.719 0.352 8.958-5.907 10.868-11.313 1.977 4.746 3.953 9.492 5.93 14.238 9.229-8.174 18.457-16.347 27.686-24.521-4.351-2.899-8.7-5.799-13.051-8.699 7.536 0 7.739-0.292 12.352-6.222 2.862-3.68-2.095-9.854-4.874-12.079-9.503-7.605-19.367 7.757-26.86 8.018"/>
 <path d="m152.55 109.13c0.085007-1.726-3.366-10.079-5.142-11.471-2.813-2.205-5.968-0.055-8.308 1.584 0.88901-0.119 1.867 0.416 2.769 0.394-1.092 5.457-2.987 7.909-8.6 7.909-4.797 0-5.824-6.97-4.844-10.28 2.819-9.523 12.705-16.467 19.42-23.017 4.391-4.282 16.618-13.223 22.844-8.694 4.525 3.292 5.216 7.381 1.766 11.599-2.551 3.118-9.071 1.942-6.063-2.826-6.456 8.877-0.12901 11.152 7.116 17.006-6.389 5.528-13.465 14.198-20.958 17.796" fill="#fff299"/>
 <g fill="#b37d47">
  <path d="m163.22 84.032c0-4.257 0.646-5.24 3.163-8.701-4.971 7.881 13.063 3.636 8.303-3.164-0.873 2.55-2.308 4.01-4.743 5.14 0.67299-4.731-3.816-4.187-6.378-2.556-4.122 2.624-2.975 6.273-0.345 9.281"/>
  <path d="m136.33 108.16c1.054-1.187 2.107-2.374 3.161-3.561-3.203-1.064-4.086-7.057-0.396-8.303 0.88699-0.3 3.119 0.905 3.954 1.185-1.318 0.923-2.636 1.847-3.954 2.771 0.88899-0.119 1.867 0.416 2.769 0.394-0.52 2.597-2.017 8.516-5.534 7.514"/>
  <path d="m173.5 68.212c-11.635-7.405-23.528 4.959-31.65 12.882-5.564 5.428-9.132 9.289-12.833 16.077-2.985 5.476 0.87901 12.317 7.312 11.378-17.74-3.149 4.328-23.431 9.063-27.929 5.225-4.965 24.504-22.785 28.903-8.454-0.347-1.295-0.616-2.635-0.795-3.954"/>
 </g>
 <path d="m156.87 100.99c-3.453-5.758-7.262-9.298-12.261-13.841 2.819-1.794 5.64-3.588 8.459-5.382 0.657-0.418 5.18 5.486 5.78 6.173 0.59 0.674 5.81 6.088 5.307 6.532-2.441 2.153-4.958 4.241-7.285 6.518" fill="#d9b86c"/>
 <path d="m86.5 97.082c1.938 2.171 8.583 12.022 10.944 10.305 5.449-3.962 10.897-7.924 16.346-11.886-2.744-2.863-7.15-10.676-10.988-8.34l-16.302 9.921"/>
 <path d="m92.432 97.477c1.318 1.846 2.637 3.691 3.955 5.537 3.824-2.769 7.647-5.537 11.471-8.305-4.347-3.01-4.499-3.911-8.701-1.186-1.808 1.172-5.504 3.825-6.725 3.954" fill="#66cc29"/>
 <path d="m113 156.4l-0.792 13.053c4.314-0.326 8.627-0.65199 12.941-0.978 5.764-0.437 7.934 1.164 8.217-4.758 0.282-5.884-1.849-4.433-7.519-5.211-3.804-0.522-9.524-0.273-12.847-2.106"/>
 <path d="m116.95 160.75c-0.131 1.582-0.263 3.164-0.394 4.746 3.073-0.385 12.471 0.186 13.05-3.164-4.233-0.44701-8.436-1.233-12.656-1.582" fill="#66cc29"/>
 <g fill="#ffbfd9">
  <path d="m47.744 122c-6.991 2.447 6.12 7.013 0 0"/>
  <path d="m56.839 87.195c-2.164 2.224-4.34 9.935 0.792 9.49-0.744-0.644-1.462-1.937-1.187-3.559 0.611-3.59 4.269-2.956 3.164 0.792 2.585-3.275 0.475-6.732-2.769-6.723"/>
  <path d="m62.771 96.685c-3.063 1.008-1.832 4.561 0.792 4.747 0.645-1.455 0.166-3.394-0.792-4.747"/>
  <path d="m40.229 136.63c1.937-2.189 4.86-9.77-0.789-9.095 4.209 3.259-2.795 9.207-1.976 2.767-2.221 2.623-0.647 6.944 2.765 6.328"/>
 </g>
 <path d="m53.282 108.95c-1.295 4.421 3.331 3.76 2.372 0-0.801 0.384-1.993-0.079002-2.372 0"/>
 <path d="m45.373 135.44c-1.732 3.496 2.164 4.475 2.371 0.395-0.758 0.16499-2.379-0.395-2.371-0.395"/>
 <path d="m63.169 91.545c-0.906 1.438-0.779 2.784 0.394 3.559 2.178-1.373 2.437-3.692-0.394-3.559"/>
 <path d="m58.024 116.07c-1.475 2.655-5.475 12.034 1.19 11.072-1.171-1.11-1.583-2.114-1.583-3.955 0-4.444 5.381-3.909 3.953 0.791 2.29-3.031 1.416-8.989-3.56-7.908"/>
 <path d="m46.558 105.78c-0.687 2.031-1.877 3.476-0.791 5.14 2.959 4.533 4.746-2.879 4.746-5.535-1.242 0.124-2.769 0.019997-3.955 0.395"/>
 <g fill="#ffbfd9">
  <path d="m56.445 129.11c-3.29 1.16-1.12 4.413 0.792 4.747 0.921-1.559 0.693-3.627-0.792-4.747"/>
  <path d="m69.102 113.69c2.295-1.974 4.753-9.863-0.398-9.098 4.583 3.994-3.677 8.143-1.976 2.374-2.046 3.191-0.182 7.92 2.374 6.724"/>
 </g>
 <path d="m190.91 114.48c-1.654 2.483-5.944 11.72 0.791 11.073-0.90599-0.937-1.484-2.483-1.189-4.35 0.70599-4.465 4.663-2.859 3.562 1.582 1.971-3.683 1.84-8.935-3.164-8.305"/>
 <path d="m148.2 155.61c-2.937-1.542-9.956-8.293-3.56-10.283-3.599 5.991 8.205 8.57 3.56 1.977 3.546 2.289 3.646 9.414 0 8.306"/>
 <g fill="#ffbfd9">
  <path d="m145.03 135.44c-2.512 1.566-0.385 4.443 1.976 4.348 0.369-1.788-0.353-3.416-1.976-4.348"/>
  <path d="m196.05 125.56c3.27 0.362 2.369-3.596 0.39299-4.35-1.212 1.179-1.382 2.676-0.39299 4.35"/>
 </g>
 <path d="m175.09 132.28c-1.312 3.666 3.032 4.263 1.978 0-0.787 0.448-1.584-0.068008-1.978 0"/>
 <g fill="#ffbfd9">
  <path d="m207.8 132.93c2.404-1.929 4.09-9.681-0.785-9.096 0.739 0.648 1.458 1.939 1.183 3.559-0.60899 3.59-4.268 2.958-3.163-0.79-2.08 2.751-0.209 8.281 2.765 6.327"/>
  <path d="m156.5 145.33c-5.224 4.114 7.154 6.221 0 0"/>
 </g>
 <path d="m170.34 113.69c0.371-0.67-0.705 2.084-0.393 2.373 2.027 1.877 4.082-2.706 0.393-2.373"/>
 <path d="m200.79 119.23c-1.001 1.475-0.782 2.769 0.396 3.559 2.176-1.374 2.436-3.693-0.396-3.559"/>
 <path d="m168.76 135.84c-0.647 3.281-2.463 4.844 0.79399 7.117 2.996-2.08 2.769-3.771 2.769-7.117-1.076 0.295-3.258-0.014999-3.563 0"/>
 <path d="m172.32 118.44c-3.687 6.152 4.079 6.452 2.768-0.394-0.85802 0.123-1.983 0.049004-2.768 0.394"/>
 <path d="m154.92 130.3c-2.472 3.788 3.065 4.258 1.98 0-0.323 0.13901-2.505 0.13501-1.98 0"/>
 <g fill="#ffbfd9">
  <path d="m182.6 117.65c7.147 0.78999-4.247-9.358 0 0"/>
  <path d="m155.31 126.35c1.916 0.741 2.556-0.819 2.769-2.768-3.185-3.321-2.993 1.895-2.769 2.768"/>
 </g>
 <path d="m181.42 123.58c-0.43201 1.031-0.11301 1.692-0.793 2.374 1.806 2.298 3.335-0.093002 2.77-2.374-0.324 0.139-2.501 0.134-1.977 0"/>
 <path d="m161.24 138.6c3.563 1.584 2.684-3.61 0.397-4.35-0.765 1.115-0.399 4.346-0.397 4.35" fill="#ffbfd9"/>
 <g fill="#e6b845">
  <path d="m98.364 16.8c-6.518-0.395-13.972-2.622-18.852 3.076-5.244 6.123-3.545 4.718-1.713 10.768 0.255-0.389 0.75-3.142 1.202-3.4 1.343-0.767 3.605-2.765 5.127-2.927 1.235-0.132 2.479 2.266 3.575 1.169 7.167-7.166 12.346-0.98 13.431 7.134 0.559-2.153 2.866-6.339 2.372-8.701-0.45699-2.181-3.88-5.085-5.142-7.119"/>
  <path d="m134.35 13.636c-5.609 3.629-6.795 4.55-9.066 10.796-1.157 3.182-6.958 4.777-9.126 2.256-3.283-3.818 1.734-11.286 4.478-14.203 6.252-6.647 20.773-5.152 25.181 2.734 2.745 4.911 0.494 9.118 0 14.236-0.949-5.379-2.047-7.378-7.117-9.492 0.813 7.74 0.481 7.764-5.538 12.656-0.92-2.07-5.306-8.649-4.744-10.677 0.93001-3.36 9.065-3.608 5.932-8.306"/>
  <path d="m165.2 32.224c-2.321 0.387-3.458 1.534-4.876 3.209-2.647 3.128-2.424 3.156-6.433 2.458-3.632-0.631-6.469-0.506-5.696-4.877 1.044-5.905 8.817-11.264 15.028-11.864 7.861-0.759 24.12 3.973 24.12 13.841 0 5.476-2.703 9.648-6.325 13.447 0.515-1.017 0.574-3.498 0.396-5.144-0.42099-3.894-1.003-3.842-4.749-6.721-0.46899 1.875-0.683 6.558-1.977 7.909-1.56 1.628-7.251 2.115-9.489 2.768 1.804-4.379 3.706-8.479 5.935-12.655-1.961-0.652-4.607-1.269-5.934-2.371"/>
 </g>
 <path d="m254.18 123.98c-31.849 17.484-63.72 34.905-94.914 53.389-32.848 19.463-65.271 39.205-98.583 57.929-6.718 3.776-13.127 6.252-20.417 8.916l-20.496 7.488c-4.453 1.627-7.141 4.301-10.39 0.016998 15.281-5.659 32.231-9.886 46.431-17.925 17.314-9.804 35.169-18.989 52.044-29.532 28.173-17.602 56.26-35.702 85.393-51.529 20.311-11.034 40.622-22.068 60.933-33.103-9.92e-4 1.001-9.92e-4 4.784-9.92e-4 4.35" fill="#b3995a"/>
 <path d="m12.943 207.81c0.494-4.68 0.617-7.25 3.19-11.11 1.186-1.779 2.372-3.559 3.557-5.338 1.078-1.617 3.817-2.11 4.72-3.718 1.709-3.043-1.292-9.019 1.189-11.072 0.754-0.62399 3.743-0.75299 4.742-1.186 2.425 4.191 12.113 10.83 11.077 16.605-0.809 4.51-9.771 4.649-13.266 6.556-3.247 1.771-6.494 3.541-9.74 5.312-1.883 1.027-4.383 3.731-5.469 3.951"/>
 <path d="m16.899 201.49c2.03-5.538 6.72-7.46 9.958-11.913 2.429-3.342-1.04-10.253 3.484-10.231 1.361 4.084 5.102 8.239 7.123 12.258-3.26 1.945-6.847 0.923-10.064 2.915-3.421 2.118-7.03 5.239-10.501 6.971" fill="#ff994d"/>
 <path d="m134.35 120.81c-5.262 2.786-7.53 3.559-13.446 3.559-5.293 0-8.46-2.75-13.23-0.166-3.854 2.087-5.894 4.713-8.521 0.563-1.38-2.179-1.121-4.084 0.197-6.724 1.94-3.884 3.766-14.855 10.084-12.259 2.097 0.862 4.434 4.433 6.056 6.056 1.361 1.361 3.74 2.164 5.409 3.074 4.602 2.509 8.438 4.465 13.451 5.897"/>
 <path d="m126.44 120.81c-4.833 1.526-7.137-0.236-11.47-1.581-5.159-1.601-8.231 1.665-12.258 4.351-0.289-0.313-1.461-1.734-1.583-1.977 1.97-3.958 4.209-8.042 6.325-12.261 3.269 1.727 4.877 5.008 8.188 6.664 2.943 1.471 9.101 3.666 10.798 4.804" fill="#ff994d"/>
 <path d="m195.25 69.398c-2.975 0.118-9.9-7.59-11.721-1.932-3.962 12.319-4.132 24.254-3.7 37.129 8.34-3.871 15.992-7.622 18.982-17.4 0.713-2.33 0.12399-6.29 0-8.699-0.203-3.964-1.978-5.215-3.561-9.098"/>
 <path d="m195.25 77.307c-1.441-3.132-3.672-5.185-8.303-7.909-3.711 9.887-4.269 20.385-3.163 30.849 8.212-4.484 11.306-13.968 11.466-22.94" fill="#ff994d"/>
 <path d="m209.1 90.753c5.009 1.583 10.019 3.165 15.027 4.748-1.708 4.356-3.416 8.713-5.125 13.069-2.386 6.084-1.284 7.662-7.527 5.32-5.554-2.083-4.727-1.95-4.077-7.797 0.567-5.114 1.135-10.227 1.702-15.34"/>
 <path d="m140.89 138.24c-2.638 3.6914-5.274 7.3828-7.912 11.074l12.556 5.2768c5.937 2.4947 6.052 3.9862 9.392-0.87878 3.268-4.7604 1.826-4.2844-3.136-7.8737-3.392-2.4527-7.011-5.8805-10.9-7.5986"/>
 <g fill="#66cc29">
  <path transform="rotate(-65.455 147.94 148.41)" d="m146.26 140.9c2.939 1.176 6.404 1 5.253 4.351-1.224 3.559-2.446 7.118-3.67 10.676-4.731-1.893-3.933-2.446-2.966-7.316 0.444-2.235 1.665-6.363 1.383-7.711"/>
  <path transform="rotate(56.296 214.09 99.992)" d="m210.07 94.171c-1.837 3.938-4.093 5.225-0.089005 7.361 2.913 1.554 8.291 6.509 10.174 3.12 1.959-3.525-7.508-8.435-10.085-10.481"/>
 </g>
 <path d="m94.015 45.274c-3.334 3.293-6.547 7.105-8.308 11.47 6.625 0.389 15.578-0.802 21.694 1.843 7.498 3.243 14.954 6.362 22.6 9.23-2.599-7.425-7.81-17.563-15.026-21.355-5.531-2.907-15.288-2.7-20.96-1.188"/>
 <path d="m122.88 60.699c-11.055-4.792-19.177-7.509-31.245-7.91 2.859-2.313 4.984-4.126 9.887-3.955 3.336 0.116 9.782 0.75 12.656 2.372 3.315 1.871 6.166 8.302 8.702 9.493" fill="#ff994d"/>
 <path d="m155.71 56.348c-3.559-2.241-7.117-4.483-10.676-6.724-1.497 3.577-2.994 7.155-4.491 10.732-2.097 5.009-3.891 5.575 0.933 8.253 4.759 2.644 4.342 0.97 7.646-3.277 1.573-2.024 6.7-7.295 6.588-8.984"/>
 <path d="m150.17 57.534c-1.318-0.922-2.637-1.844-3.955-2.767-1.033 2.583-2.065 5.167-3.099 7.751-0.76001 1.9 1.29 4.96 2.109 3.322 1.429-2.851 4.076-5.178 4.945-8.306" fill="#66cc29"/>
 <path d="m65.935 206.63c-3.507-2.744-6.301-4.33-9.096-7.91 7.201-2.258 15.94-3.542 22.276-7.711 7.776-5.117 15.466-9.916 23.602-14.434-0.43401 4.984 0.002998 8.193-3.267 11.899-2.569 2.911-6.606 9.972-10.379 11.234-7.045 2.359-15.849 11.742-23.136 6.922"/>
 <path d="m96.785 184.48c-5.134 3.642-10.036 7.638-15.724 10.35-6.015 2.866-12.179 3.982-18.684 5.467 3.303 1.776 7.55 3.864 11.864 2.771 7.07-1.79 19.056-12.523 22.544-18.588" fill="#ff994d"/>
 <path d="m77.405 152.05c-10.066 1.365-28.361 0.82199-35.5 9.996-3.964 5.094-7.87 11.097-2.263 16.703 5.993 5.993 10.886 3.343 16.803-1.389-1.713 5.668-3.426 11.336-5.14 17.004 12.391-0.923 24.782-1.845 37.173-2.768l-3.558-17.004c5.757 5.346 5.88 5.049 13.482 3.066 4.111-1.071 5.057-9.885 4.708-13.548-1.08-11.383-16.997-11.166-25.705-12.06"/>
 <path d="m55.654 190.81c2.043-2.613 3.954-10.471 3.954-13.84 0-4.151-4.496-4.516-7.516-4.748 4.226 3.729-3.117 7.891-6.72 6.727-3.565-1.152-5.103-9.321-3.092-11.699 7.989-9.448 18.381-9.521 29.969-10.918 5.141-0.62 9.314-0.392 14.521 0.112 3.192 0.30901 10.805 2.543 11.71 5.937 1.032 3.865 2.148 11.12-3.132 12.626-3.536 1.009-3.843 1.336-6.919-0.62201-2.578-1.642-1.041-4.704 1.63-5.721-2.649 0.757-8.747 1.965-8.279 6.174 0.518 4.665 1.037 9.33 1.555 13.996-9.217 0.66699-18.449 1.56-27.681 1.976" fill="#fff299"/>
 <g fill="#b37d47">
  <path d="m81.36 174.2c2.971-3.717 4.121-4.23 8.7-5.539-9.652 3.675 6.784 12.547 7.911 3.164-2.193 1.494-4.151 1.824-6.725 1.189 3.775-3.744-0.254-7.952-4.747-6.727-5.7 1.556-3.336 6.34-5.139 7.913"/>
  <path d="m44.581 177.76c3.127-0.77899 4.879-0.12799 4.453-3.528-0.174-1.392 1.485-4.616 2.89-4.898 4.146-0.83099 3.644 0.271 5.314 3.286-1.715-0.132-3.43-0.265-5.145-0.396 5.349 4.717-6.009 8.289-7.512 5.536"/>
  <path d="m99.947 167.48c-1.629-5.696-5.237-10.267-11.731-10.895-7.989-0.772-14.325-0.45-22.308 0.513-8.097 0.977-12.566 2.242-19.876 5.897-5.859 2.93-5.707 11.149-1.452 15.162-3.753-4.802-1.182-12.184 4.113-14.302 7.082-2.833 12.859-3.739 20.479-4.691 10.554-1.318 32.099-4.24 28.798 12.271 0.722-1.3 1.513-2.602 1.977-3.955"/>
 </g>
 <path d="m63.563 190.41c1.499-7.487 1.243-13.701 0.792-21.357 3.331 0.385 6.661 0.76999 9.992 1.154 0.732 0.085007 0.11 8.744 0.089996 9.722-0.020996 1.014 0.25201 9.67-0.522 9.702-3.385 0.142-7.099-0.187-10.352 0.77901" fill="#d9b86c"/>
 <path d="m134.75 54.767c-3.515-2.313-7.687-5.951-11.862-6.725 0.388 6.61 2.647 15.417 0.691 21.774-2.427 7.891-4.698 15.682-6.624 23.707 3.889-2.161 6.948-3.775 9.961-6.982 2.262-2.408 9.418-7.594 9.418-11.014 0.001007-6.998 2.284-14.506-1.584-20.76"/>
 <path d="m122.49 85.612c4.106-11.579 5.959-19.751 5.141-32.033 1.329 2.64 4.642 4.296 5.141 8.701 1.244 10.985-3.564 15.739-10.282 23.332" fill="#ff994d"/>
 <g fill="#e6b845">
  <path d="m217.8 61.093c0.96199 3.49 1.925 6.981 2.887 10.472 0.65601 2.382-2.167 5.618-3.279 7.721 5.674 0 6.94 0.826 10.148-3.808 1.439-2.079 0.52899-4.475-0.065002-6.869-1.444-5.816-3.829-8.814-7.316-14.04-1.915-2.87-8.521-6.92-11.864-6.92-2.186 0-4.506-1.428-6.724-1.582-3.495-0.242-5.074 1.03-8.697 3.163 2.723 0.409 6.959 0.035999 8.771 2.238 1.478 1.794 2.955 3.589 4.433 5.384 0.96901 1.177 3.787 0.719 4.59 1.872 1.08 1.55-0.317 6.841 0.39299 9.096 0.422 1.342 1.369 2.8 1.98 3.954 0.886-3.468 4.559-8.092 4.743-10.681"/>
  <path d="m246.67 95.896c-1.133 3.559-1.248 7.904-4.35 8.306-1.295 0.167-4.616-1.535-5.93-1.978 0.636-1.061 1.603-2.007 2.568-2.967 1.335-1.327-1.181-6.165-1.826-8.195-0.677-2.126-9.125-7.061-10.635-6.635 2.655-1.532 3.805-3.526 6.969-2.309 2.345 0.901 7.364 1.651 8.511 4.031 1.566 3.248 3.129 6.498 4.693 9.747"/>
 </g>
 <path d="m61.546 132.13c0.085007-1.726-3.366-10.079-5.142-11.471-2.813-2.205-5.968-0.055-8.308 1.584 0.88901-0.119 1.867 0.416 2.769 0.394-1.092 5.457-2.987 7.909-8.6 7.909-4.797 0-5.824-6.97-4.844-10.28 2.819-9.523 12.705-16.467 19.42-23.017 4.391-4.282 16.618-13.223 22.844-8.694 4.525 3.292 5.216 7.381 1.766 11.599-2.551 3.118-9.071 1.942-6.063-2.826-6.456 8.877-0.12901 11.152 7.116 17.006-6.389 5.528-13.465 14.198-20.958 17.796" fill="#fff299"/>
 <path d="m66.872 127.99c-3.453-5.758-7.262-9.298-12.261-13.841 2.819-1.794 5.64-3.588 8.459-5.382 0.657-0.418 5.18 5.486 5.78 6.173 0.59 0.674 5.81 6.088 5.307 6.532-2.441 2.153-4.958 4.241-7.285 6.518" fill="#d9b86c"/>
 <path d="m85.503 90.212c-11.635-7.405-23.528 4.959-31.65 12.882-5.564 5.428-9.132 9.289-12.833 16.077-2.985 5.476 0.87901 12.317 7.312 11.378-17.74-3.149 4.328-23.431 9.063-27.929 5.225-4.965 24.504-22.785 28.903-8.454-0.347-1.295-0.616-2.635-0.795-3.954" fill="#b37d47"/>
 <path d="m113.62 88.212c-2.515 1.622-8.911 4.55-4.743 8.7 5.548 5.523 13.146-2.707 15.028-6.721-3.316-1.783-5.35-1.979-10.285-1.979"/>
 <path d="m167.46 111.86c-3.258 2.776-7.733 4.38-11.072 7.513-5.058 4.746-6.475 13.54 2.259 15.348 7.762 1.606 17.859 1.781 24.363-3.748 2.627-2.233 5.672-4.131 6.993-6.854 1.037-2.137 0.602-4.762 2.371-6.722-2.598-2.182-3.92-5.14-7.511-5.14-2.314 0-4.895-0.76301-7.118-0.792-3.033-0.039001-8.073 1.5-10.285 0.395"/>
 <path d="m166.85 116.42c-2.267 1.771-5.349 2.141-7.517 3.954-3.262 2.728-4.489 9.127 0.85202 10.796 6.277 1.962 14.399 0.65399 19.674-3.566 2.613-2.091 2.983-2.706 4.39-4.855 0.93604-1.429 0.80002-2.532 1.979-3.559-2.292-1.055-2.963-2.837-5.932-3.559-4.454-1.082-8.97 0.314-13.446 0.78899" fill="#4d3d26"/>
 <path d="m169.62 116.21c-2.515 1.622-8.911 4.55-4.743 8.7 5.548 5.523 13.146-2.707 15.028-6.721-3.316-1.783-5.35-1.979-10.285-1.979"/>
</svg>
